# Blender 4.1.1
# www.blender.org
mtllib Object.mtl
o Cylinder
v 0.000000 -0.007929 -0.042718
v 0.000000 0.846440 -0.042719
v 0.036995 -0.007929 -0.021359
v 0.036995 0.846440 -0.021359
v 0.036995 -0.007929 0.021359
v 0.036995 0.846440 0.021359
v 0.000000 -0.007929 0.042718
v 0.000000 0.846440 0.042718
v -0.036995 -0.007929 0.021359
v -0.036995 0.846440 0.021359
v -0.036995 -0.007929 -0.021359
v -0.036995 0.846440 -0.021359
v -0.045136 0.865923 -0.042719
v 0.322243 0.865923 -0.042719
v -0.045136 0.828928 -0.021359
v 0.322243 0.828928 -0.021359
v -0.045136 0.828928 0.021359
v 0.322243 0.828928 0.021359
v -0.045136 0.865923 0.042718
v 0.322243 0.865923 0.042718
v -0.045136 0.902918 0.021359
v 0.322243 0.902918 0.021359
v -0.045136 0.902918 -0.021359
v 0.322243 0.902918 -0.021359
v 0.200165 0.654461 -0.074977
v 0.200165 0.766071 -0.074977
v 0.265097 0.654461 -0.037489
v 0.265097 0.766071 -0.037489
v 0.265097 0.654461 0.037489
v 0.265097 0.766071 0.037489
v 0.200165 0.654461 0.074977
v 0.200165 0.766071 0.074977
v 0.135232 0.654461 0.037489
v 0.135232 0.766071 0.037489
v 0.135232 0.654461 -0.037489
v 0.135232 0.766071 -0.037489
v 0.200165 0.766140 -0.105827
v 0.291813 0.766140 -0.052913
v 0.291813 0.766140 0.052913
v 0.200165 0.766140 0.105826
v 0.108516 0.766140 0.052913
v 0.108516 0.766140 -0.052913
v 0.200165 0.807475 -0.000000
vn 0.5000 -0.0000 -0.8660
vn 1.0000 -0.0000 -0.0000
vn 0.5000 -0.0000 0.8660
vn -0.5000 -0.0000 0.8660
vn -0.0000 1.0000 -0.0000
vn -1.0000 -0.0000 -0.0000
vn -0.5000 -0.0000 -0.8660
vn -0.0000 -1.0000 -0.0000
vn -0.0000 -0.5000 -0.8660
vn -0.0000 -0.5000 0.8660
vn -0.0000 0.5000 0.8660
vn -0.0000 0.5000 -0.8660
vn 0.2056 0.9116 -0.3561
vn 0.4111 0.9116 -0.0000
vn 0.2056 0.9116 0.3560
vn -0.2056 0.9116 0.3560
vn -0.4111 0.9116 -0.0000
vn -0.2056 0.9116 -0.3560
vt 0.789632 0.941208
vt 0.727593 0.755092
vt 0.789632 0.755092
vt 0.727593 0.941208
vt 0.665554 0.755092
vt 0.665554 0.941208
vt 0.603516 0.755092
vt 0.603516 0.941208
vt 0.541477 0.755092
vt 0.510457 0.572698
vt 0.587825 0.617366
vt 0.510457 0.751370
vt 0.541477 0.941208
vt 0.479438 0.755092
vt 0.479438 0.941208
vt 0.417399 0.755092
vt 0.696574 0.572698
vt 0.619207 0.617366
vt 0.619207 0.706702
vt 0.373417 0.335972
vt 0.325768 0.193024
vt 0.373417 0.193024
vt 0.325768 0.335972
vt 0.278118 0.193024
vt 0.278118 0.335972
vt 0.230469 0.193024
vt 0.230469 0.335972
vt 0.182819 0.193024
vt 0.099572 0.087242
vt 0.158994 0.052934
vt 0.218417 0.087242
vt 0.182819 0.335972
vt 0.135170 0.193024
vt 0.135170 0.335972
vt 0.087520 0.193024
vt 0.242520 0.087242
vt 0.242520 0.155857
vt 0.361366 0.155857
vt 0.924171 0.351570
vt 0.876531 0.208649
vt 0.924171 0.208649
vt 0.876531 0.351570
vt 0.828890 0.208649
vt 0.828890 0.351570
vt 0.781250 0.208649
vt 0.781250 0.351570
vt 0.733609 0.208649
vt 0.709789 0.068586
vt 0.769201 0.102887
vt 0.709789 0.205790
vt 0.733609 0.351570
vt 0.685969 0.208649
vt 0.685969 0.351570
vt 0.638329 0.208649
vt 0.852710 0.068586
vt 0.793299 0.102887
vt 0.793299 0.171489
vt 0.709789 0.137188
vt 0.769201 0.171489
vt 0.650378 0.102887
vt 0.650378 0.171489
vt 0.587825 0.706702
vt 0.433090 0.706702
vt 0.433090 0.617366
vt 0.417399 0.941208
vt 0.696574 0.751370
vt 0.773941 0.706702
vt 0.773941 0.617366
vt 0.218417 0.155857
vt 0.158994 0.190165
vt 0.099572 0.155857
vt 0.087520 0.335972
vt 0.301943 0.190165
vt 0.361366 0.087242
vt 0.301943 0.052934
vt 0.638329 0.351570
vt 0.852710 0.205790
vt 0.912122 0.171489
vt 0.912122 0.102887
s 0
usemtl Material.001
f 2/1/1 3/2/1 1/3/1
f 4/4/2 5/5/2 3/2/2
f 6/6/3 7/7/3 5/5/3
f 8/8/4 9/9/4 7/7/4
f 8/10/5 6/11/5 2/12/5
f 10/13/6 11/14/6 9/9/6
f 12/15/7 1/16/7 11/14/7
f 7/17/8 9/18/8 11/19/8
f 14/20/9 15/21/9 13/22/9
f 16/23/8 17/24/8 15/21/8
f 18/25/10 19/26/10 17/24/10
f 20/27/11 21/28/11 19/26/11
f 22/29/2 20/30/2 18/31/2
f 22/32/5 23/33/5 21/28/5
f 24/34/12 13/35/12 23/33/12
f 21/36/6 23/37/6 15/38/6
f 26/39/1 27/40/1 25/41/1
f 28/42/2 29/43/2 27/40/2
f 30/44/3 31/45/3 29/43/3
f 32/46/4 33/47/4 31/45/4
f 32/48/5 30/49/5 26/50/5
f 34/51/6 35/52/6 33/47/6
f 36/53/7 25/54/7 35/52/7
f 31/55/8 33/56/8 35/57/8
f 37/50/13 43/58/13 38/59/13
f 38/59/14 43/58/14 39/49/14
f 39/49/15 43/58/15 40/48/15
f 40/48/16 43/58/16 41/60/16
f 40/55/8 41/56/8 42/57/8
f 41/60/17 43/58/17 42/61/17
f 42/61/18 43/58/18 37/50/18
f 2/1/1 4/4/1 3/2/1
f 4/4/2 6/6/2 5/5/2
f 6/6/3 8/8/3 7/7/3
f 8/8/4 10/13/4 9/9/4
f 6/11/5 4/62/5 2/12/5
f 2/12/5 12/63/5 10/64/5
f 10/64/5 8/10/5 2/12/5
f 10/13/6 12/15/6 11/14/6
f 12/15/7 2/65/7 1/16/7
f 11/19/8 1/66/8 7/17/8
f 1/66/8 3/67/8 7/17/8
f 3/67/8 5/68/8 7/17/8
f 14/20/9 16/23/9 15/21/9
f 16/23/8 18/25/8 17/24/8
f 18/25/10 20/27/10 19/26/10
f 20/27/11 22/32/11 21/28/11
f 18/31/2 16/69/2 14/70/2
f 14/70/2 24/71/2 18/31/2
f 24/71/2 22/29/2 18/31/2
f 22/32/5 24/34/5 23/33/5
f 24/34/12 14/72/12 13/35/12
f 23/37/6 13/73/6 15/38/6
f 15/38/6 17/74/6 19/75/6
f 19/75/6 21/36/6 15/38/6
f 26/39/1 28/42/1 27/40/1
f 28/42/2 30/44/2 29/43/2
f 30/44/3 32/46/3 31/45/3
f 32/46/4 34/51/4 33/47/4
f 30/49/5 28/59/5 26/50/5
f 26/50/5 36/61/5 34/60/5
f 34/60/5 32/48/5 26/50/5
f 34/51/6 36/53/6 35/52/6
f 36/53/7 26/76/7 25/54/7
f 35/57/8 25/77/8 31/55/8
f 25/77/8 27/78/8 31/55/8
f 27/78/8 29/79/8 31/55/8
f 42/57/8 37/77/8 40/55/8
f 37/77/8 38/78/8 40/55/8
f 38/78/8 39/79/8 40/55/8
