# Blender 4.3.2
# www.blender.org
mtllib Sword.mtl
o 立方体
v -1.000000 -0.176649 -49.000000
v -1.000000 -0.176650 1.000000
v -1.000000 0.176652 -49.000000
v -1.000000 0.176652 1.000000
v 1.000000 -0.499998 -49.000000
v 1.000000 -0.500000 1.000000
v 1.000000 0.500002 -49.000000
v 1.000000 0.500000 1.000000
vn -1.0000 -0.0000 -0.0000
vn -0.1596 0.9872 -0.0000
vn 1.0000 -0.0000 -0.0000
vn -0.1596 -0.9872 -0.0000
vn -0.0000 -0.0000 -1.0000
vn -0.0000 -0.0000 1.0000
vt 0.216204 0.000000
vt 0.216204 1.000000
vt 0.209139 0.999950
vt -0.000000 0.000000
vt 0.040518 0.999975
vt 0.000000 0.999975
vt 0.162074 0.000000
vt 0.182073 0.999975
vt 0.162074 0.999975
vt 0.040518 0.000000
vt 0.081037 0.999975
vt 0.040519 0.999975
vt 0.216204 0.123263
vt 0.216204 0.081037
vt 0.222898 0.120999
vt 0.235947 0.003192
vt 0.216204 0.040518
vt 0.216204 0.000000
vt 0.202073 0.000000
vt 0.209139 0.000000
vt 0.209139 0.999975
vt 0.121555 0.000000
vt 0.162074 0.000000
vt 0.162074 0.999975
vt 0.182073 0.000000
vt 0.202073 0.999975
vt 0.081037 0.000000
vt 0.121555 0.000000
vt 0.121555 0.999975
vt 0.235947 0.040518
vt 0.235947 0.081037
vt 0.216204 0.077845
vt 0.222898 0.165489
vt 0.216204 0.125527
vt 0.222898 0.123263
s 0
usemtl マテリアル
f 2/1/1 3/2/1 1/3/1
f 4/4/2 7/5/2 3/6/2
f 8/7/3 5/8/3 7/9/3
f 6/10/4 1/11/4 5/12/4
f 3/13/5 5/14/5 1/15/5
f 8/16/6 2/17/6 6/18/6
f 2/19/1 4/20/1 3/21/1
f 4/22/2 8/23/2 7/24/2
f 8/25/3 6/19/3 5/26/3
f 6/27/4 2/28/4 1/29/4
f 3/30/5 7/31/5 5/32/5
f 8/33/6 4/34/6 2/35/6
