# Blender 3.5.0
# www.blender.org
mtllib NormalEnemy.mtl
o Cube
v 0.000000 0.500000 0.000000
v 0.000000 -0.500000 0.000000
v 0.462980 0.000000 0.462980
v 0.462980 0.000000 -0.462980
v -0.462980 0.000000 0.462980
v 0.500000 0.053753 -0.500000
v -0.500000 0.053753 0.500000
v 0.500000 0.053753 0.500000
v -0.500000 0.053753 -0.500000
v 0.500000 -0.053753 -0.500000
v 0.500000 -0.053753 0.500000
v -0.500000 -0.053753 -0.500000
v -0.500000 -0.053753 0.500000
v -0.462980 0.000000 -0.462980
vn -0.0000 0.7461 0.6659
vn -0.6659 0.7461 -0.0000
vn -0.8236 0.5672 -0.0000
vn 0.6659 0.7461 -0.0000
vn -0.0000 0.7461 -0.6659
vn -0.0000 -0.5672 -0.8236
vn 0.8236 -0.5672 -0.0000
vn -0.8236 -0.5672 -0.0000
vn -0.0000 -0.5672 0.8236
vn -0.0000 -0.7461 0.6659
vn -0.6659 -0.7461 -0.0000
vn 0.6659 -0.7461 -0.0000
vn -0.0000 -0.7461 -0.6659
vn -0.0000 0.5672 0.8236
vn 0.8236 0.5672 -0.0000
vn -0.0000 0.5672 -0.8236
vt 0.818775 1.000000
vt 0.818775 0.250000
vt 0.818775 0.750000
vt 0.818775 0.500000
vt 0.215330 0.750000
vt 0.215330 0.000000
vt 0.215330 0.500000
vt 0.215330 0.250000
vt 0.468750 0.750000
vt 0.468750 0.500000
vt 0.468750 0.000000
vt 0.468750 1.000000
vt 0.693775 0.500000
vt 0.500000 0.500000
vt 0.693775 1.000000
vt 0.693775 0.000000
vt 0.500000 0.000000
vt 0.500000 1.000000
vt 0.693775 0.750000
vt 0.500000 0.750000
vt 0.693775 0.250000
vt 0.500000 0.250000
vt 0.277830 0.500000
vt 0.437500 0.500000
vt 0.277830 0.750000
vt 0.437500 0.750000
vt 0.277830 0.250000
vt 0.437500 0.250000
vt 0.437500 0.000000
vt 0.277830 1.000000
vt 0.277830 0.000000
vt 0.437500 1.000000
vt 0.468750 0.250000
s 0
usemtl Material
f 8/19/1 1/1/1 7/15/1
f 7/16/2 1/2/2 9/21/2
f 5/11/3 12/28/3 13/29/3
f 6/13/4 1/3/4 8/19/4
f 9/21/5 1/4/5 6/13/5
f 9/22/6 4/10/6 14/33/6
f 6/14/7 3/9/7 4/10/7
f 7/17/8 14/33/8 5/11/8
f 8/20/9 5/12/9 3/9/9
f 2/5/10 11/25/10 13/30/10
f 2/6/11 13/31/11 12/27/11
f 2/7/12 10/23/12 11/25/12
f 2/8/13 12/27/13 10/23/13
f 3/9/14 13/32/14 11/26/14
f 4/10/15 11/26/15 10/24/15
f 14/33/16 10/24/16 12/28/16
f 5/11/3 14/33/3 12/28/3
f 9/22/6 6/14/6 4/10/6
f 6/14/7 8/20/7 3/9/7
f 7/17/8 9/22/8 14/33/8
f 8/20/9 7/18/9 5/12/9
f 3/9/14 5/12/14 13/32/14
f 4/10/15 3/9/15 11/26/15
f 14/33/16 4/10/16 10/24/16
