{
	"asset":{
		"generator":"Khronos glTF Blender I/O v4.1.63",
		"version":"2.0"
	},
	"scene":0,
	"scenes":[
		{
			"name":"Scene",
			"nodes":[
				0
			]
		}
	],
	"nodes":[
		{
			"mesh":0,
			"name":"Cube",
			"rotation":[
				0,
				1,
				0,
				0
			]
		}
	],
	"animations":[
		{
			"channels":[
				{
					"sampler":0,
					"target":{
						"node":0,
						"path":"translation"
					}
				},
				{
					"sampler":1,
					"target":{
						"node":0,
						"path":"rotation"
					}
				},
				{
					"sampler":2,
					"target":{
						"node":0,
						"path":"scale"
					}
				}
			],
			"name":"CubeAction",
			"samplers":[
				{
					"input":4,
					"interpolation":"STEP",
					"output":5
				},
				{
					"input":6,
					"interpolation":"LINEAR",
					"output":7
				},
				{
					"input":4,
					"interpolation":"STEP",
					"output":8
				}
			]
		}
	],
	"materials":[
		{
			"doubleSided":true,
			"name":"\u30de\u30c6\u30ea\u30a2\u30eb",
			"pbrMetallicRoughness":{
				"baseColorTexture":{
					"index":0
				},
				"metallicFactor":0,
				"roughnessFactor":0.5
			}
		}
	],
	"meshes":[
		{
			"name":"\u7acb\u65b9\u4f53",
			"primitives":[
				{
					"attributes":{
						"POSITION":0,
						"NORMAL":1,
						"TEXCOORD_0":2
					},
					"indices":3,
					"material":0
				}
			]
		}
	],
	"textures":[
		{
			"sampler":0,
			"source":0
		}
	],
	"images":[
		{
			"mimeType":"image/png",
			"name":"Monster",
			"uri":"Monster.png"
		}
	],
	"accessors":[
		{
			"bufferView":0,
			"componentType":5126,
			"count":240,
			"max":[
				1,
				1,
				2.3807597160339355
			],
			"min":[
				-1,
				-1,
				-1
			],
			"type":"VEC3"
		},
		{
			"bufferView":1,
			"componentType":5126,
			"count":240,
			"type":"VEC3"
		},
		{
			"bufferView":2,
			"componentType":5126,
			"count":240,
			"type":"VEC2"
		},
		{
			"bufferView":3,
			"componentType":5123,
			"count":252,
			"type":"SCALAR"
		},
		{
			"bufferView":4,
			"componentType":5126,
			"count":2,
			"max":[
				3.3333333333333335
			],
			"min":[
				0
			],
			"type":"SCALAR"
		},
		{
			"bufferView":5,
			"componentType":5126,
			"count":2,
			"type":"VEC3"
		},
		{
			"bufferView":6,
			"componentType":5126,
			"count":81,
			"max":[
				3.3333333333333335
			],
			"min":[
				0
			],
			"type":"SCALAR"
		},
		{
			"bufferView":7,
			"componentType":5126,
			"count":81,
			"type":"VEC4"
		},
		{
			"bufferView":8,
			"componentType":5126,
			"count":2,
			"type":"VEC3"
		}
	],
	"bufferViews":[
		{
			"buffer":0,
			"byteLength":2880,
			"byteOffset":0,
			"target":34962
		},
		{
			"buffer":0,
			"byteLength":2880,
			"byteOffset":2880,
			"target":34962
		},
		{
			"buffer":0,
			"byteLength":1920,
			"byteOffset":5760,
			"target":34962
		},
		{
			"buffer":0,
			"byteLength":504,
			"byteOffset":7680,
			"target":34963
		},
		{
			"buffer":0,
			"byteLength":8,
			"byteOffset":8184
		},
		{
			"buffer":0,
			"byteLength":24,
			"byteOffset":8192
		},
		{
			"buffer":0,
			"byteLength":324,
			"byteOffset":8216
		},
		{
			"buffer":0,
			"byteLength":1296,
			"byteOffset":8540
		},
		{
			"buffer":0,
			"byteLength":24,
			"byteOffset":9836
		}
	],
	"samplers":[
		{
			"magFilter":9729,
			"minFilter":9987
		}
	],
	"buffers":[
		{
			"byteLength":9860,
			"uri":"Monster.bin"
		}
	]
}
