{
	"asset":{
		"generator":"Khronos glTF Blender I/O v4.1.63",
		"version":"2.0"
	},
	"scene":0,
	"scenes":[
		{
			"name":"Scene",
			"nodes":[
				0,
				11
			]
		}
	],
	"nodes":[
		{
			"mesh":0,
			"name":"Cube.001",
			"scale":[
				0.6202166676521301,
				0.6202166676521301,
				0.6202166676521301
			]
		},
		{
			"name":"Bone.003",
			"rotation":[
				1.3728507568223306e-14,
				-5.6040640572518896e-08,
				-5.6040640572518896e-08,
				1
			],
			"translation":[
				-7.105427357601002e-15,
				0.47610461711883545,
				1.6940658945086007e-21
			]
		},
		{
			"name":"Bone.L.002",
			"rotation":[
				-3.1082887375077917e-08,
				-1.380685716867447e-07,
				8.37342017945275e-09,
				1
			],
			"scale":[
				0.9999999403953552,
				1,
				1
			],
			"translation":[
				3.6441825557176344e-08,
				0.4987778663635254,
				-5.4868561250032144e-08
			]
		},
		{
			"children":[
				2
			],
			"name":"Bone.L.001",
			"rotation":[
				0.602530837059021,
				-6.273393893252432e-08,
				0.20252804458141327,
				0.7719708681106567
			],
			"scale":[
				1.0000001192092896,
				1,
				0.9999999403953552
			],
			"translation":[
				-5.960464477539063e-08,
				0.6000000834465027,
				3.9968028886505635e-15
			]
		},
		{
			"children":[
				3
			],
			"name":"Bone.L",
			"rotation":[
				0.5741541981697083,
				0.5741540789604187,
				-0.4127311110496521,
				0.4127312898635864
			],
			"translation":[
				-7.105427357601002e-15,
				0.47610461711883545,
				1.6940658945086007e-21
			]
		},
		{
			"name":"Bone.R.002",
			"rotation":[
				-1.7499008464483268e-08,
				1.4202669262886047e-07,
				7.172432425761599e-09,
				1
			],
			"translation":[
				-1.490117718105921e-08,
				0.4987776279449463,
				-2.9802317058624794e-08
			]
		},
		{
			"children":[
				5
			],
			"name":"Bone.R.001",
			"rotation":[
				0.6025307774543762,
				4.825687227594244e-08,
				-0.20252804458141327,
				0.7719709277153015
			],
			"scale":[
				1,
				1,
				0.9999999403953552
			],
			"translation":[
				1.3322676295501878e-15,
				0.6000000238418579,
				3.9968028886505635e-15
			]
		},
		{
			"children":[
				6
			],
			"name":"Bone.R",
			"rotation":[
				0.5741540789604187,
				-0.5741541981697083,
				0.4127312898635864,
				0.4127311110496521
			],
			"translation":[
				5.960465188081798e-08,
				0.47610461711883545,
				1.7941884075992585e-14
			]
		},
		{
			"children":[
				1,
				4,
				7
			],
			"name":"Bone.002",
			"rotation":[
				-8.441616749696977e-15,
				3.12980859007439e-08,
				3.129808945345758e-08,
				1
			],
			"translation":[
				0,
				0.7644696235656738,
				0
			]
		},
		{
			"children":[
				8
			],
			"name":"Bone",
			"rotation":[
				0,
				1.1920928955078125e-07,
				0,
				1
			],
			"translation":[
				0,
				1.0594255924224854,
				0
			]
		},
		{
			"name":"Bone.001",
			"rotation":[
				-0.7071068286895752,
				0,
				0.7071067094802856,
				4.2146844236867764e-08
			],
			"scale":[
				0.9999998807907104,
				0.9999998211860657,
				0.9999998807907104
			],
			"translation":[
				0,
				1.0594255924224854,
				0
			]
		},
		{
			"children":[
				9,
				10
			],
			"name":"Armature",
			"scale":[
				0.6556394100189209,
				0.6556394100189209,
				0.6556394100189209
			]
		}
	],
	"materials":[
		{
			"doubleSided":true,
			"name":"Material.001",
			"pbrMetallicRoughness":{
				"baseColorTexture":{
					"index":0
				},
				"metallicFactor":0,
				"roughnessFactor":0.5
			}
		}
	],
	"meshes":[
		{
			"name":"Cube.002",
			"primitives":[
				{
					"attributes":{
						"POSITION":0,
						"NORMAL":1,
						"TEXCOORD_0":2
					},
					"indices":3,
					"material":0
				}
			]
		}
	],
	"textures":[
		{
			"sampler":0,
			"source":0
		}
	],
	"images":[
		{
			"mimeType":"image/png",
			"name":"Texture",
			"uri":"Texture.png"
		}
	],
	"skins":[
		{
			"inverseBindMatrices":4,
			"joints":[
				9,
				8,
				1,
				4,
				3,
				2,
				7,
				6,
				5,
				10
			],
			"name":"Armature"
		}
	],
	"accessors":[
		{
			"bufferView":0,
			"componentType":5126,
			"count":148,
			"max":[
				0.9648634791374207,
				3.1302411556243896,
				0.4214741289615631
			],
			"min":[
				-0.9648634791374207,
				0,
				-0.4214741289615631
			],
			"type":"VEC3"
		},
		{
			"bufferView":1,
			"componentType":5126,
			"count":148,
			"type":"VEC3"
		},
		{
			"bufferView":2,
			"componentType":5126,
			"count":148,
			"type":"VEC2"
		},
		{
			"bufferView":3,
			"componentType":5123,
			"count":246,
			"type":"SCALAR"
		},
		{
			"bufferView":4,
			"componentType":5126,
			"count":10,
			"type":"MAT4"
		}
	],
	"bufferViews":[
		{
			"buffer":0,
			"byteLength":1776,
			"byteOffset":0,
			"target":34962
		},
		{
			"buffer":0,
			"byteLength":1776,
			"byteOffset":1776,
			"target":34962
		},
		{
			"buffer":0,
			"byteLength":1184,
			"byteOffset":3552,
			"target":34962
		},
		{
			"buffer":0,
			"byteLength":492,
			"byteOffset":4736,
			"target":34963
		},
		{
			"buffer":0,
			"byteLength":640,
			"byteOffset":5228
		}
	],
	"samplers":[
		{
			"magFilter":9729,
			"minFilter":9987
		}
	],
	"buffers":[
		{
			"byteLength":5868,
			"uri":"Enemy.bin"
		}
	]
}
