{
	"asset":{
		"generator":"Khronos glTF Blender I/O v4.1.63",
		"version":"2.0"
	},
	"scene":0,
	"scenes":[
		{
			"name":"Scene",
			"nodes":[
				11
			]
		}
	],
	"nodes":[
		{
			"name":"Bone.004",
			"rotation":[
				-2.046977476410916e-09,
				-1.3217794503361802e-07,
				0.42743104696273804,
				0.904047966003418
			],
			"scale":[
				0.9999999403953552,
				0.9999999403953552,
				1
			],
			"translation":[
				-1.4842190722437996e-14,
				2.593813896179199,
				1.0144066576317501e-16
			]
		},
		{
			"name":"Bone.006",
			"rotation":[
				-1.4131122938465523e-08,
				-3.431530970487984e-08,
				-0.16416822373867035,
				0.9864323735237122
			],
			"translation":[
				5.96046660916727e-08,
				1.6456867456436157,
				2.842170943040401e-14
			]
		},
		{
			"children":[
				1
			],
			"name":"Bone.005",
			"rotation":[
				-3.105643298084715e-09,
				-1.1581850856146048e-07,
				0.1678285151720047,
				0.9858161807060242
			],
			"translation":[
				-1.4842190722437996e-14,
				2.593813896179199,
				1.0144066576317501e-16
			]
		},
		{
			"name":"Bone.008",
			"rotation":[
				-2.8820192454759308e-08,
				1.048015785265477e-09,
				0.16658811271190643,
				0.9860265851020813
			],
			"scale":[
				1.0000001192092896,
				1.0000001192092896,
				1
			],
			"translation":[
				5.9604612800967516e-08,
				1.6157258749008179,
				2.842170943040401e-14
			]
		},
		{
			"children":[
				3
			],
			"name":"Bone.007",
			"rotation":[
				2.39235422583306e-08,
				-1.6225076837628194e-09,
				-0.16018225252628326,
				0.9870874285697937
			],
			"scale":[
				1,
				0.9999999403953552,
				1
			],
			"translation":[
				-1.4842190722437996e-14,
				2.593813896179199,
				1.0144066576317501e-16
			]
		},
		{
			"name":"Bone.009",
			"rotation":[
				5.588906404341287e-08,
				-3.8556304815529074e-09,
				-0.38064756989479065,
				0.9247201681137085
			],
			"scale":[
				1,
				0.9999999403953552,
				1
			],
			"translation":[
				-1.4842190722437996e-14,
				2.593813896179199,
				1.0144066576317501e-16
			]
		},
		{
			"children":[
				0,
				2,
				4,
				5
			],
			"name":"Bone.003",
			"rotation":[
				2.117582368135751e-22,
				0,
				-3.552713678800501e-15,
				1
			],
			"translation":[
				-4.534851769273651e-15,
				2.2602920532226562,
				4.941718963289571e-15
			]
		},
		{
			"children":[
				6
			],
			"name":"Bone.002",
			"rotation":[
				-1.7763568394002505e-15,
				-2.6469779601696886e-23,
				-2.117582368135751e-22,
				1
			],
			"translation":[
				-2.3670284889044588e-15,
				2.220914363861084,
				-2.649108248032033e-15
			]
		},
		{
			"children":[
				7
			],
			"name":"Bone.001",
			"rotation":[
				5.329070518200751e-15,
				2.9116757561866574e-22,
				3.1763735522036263e-22,
				1
			],
			"translation":[
				2.101049809664652e-14,
				2.157710552215576,
				-4.474326182994648e-15
			]
		},
		{
			"children":[
				8
			],
			"name":"Bone",
			"rotation":[
				-2.2476461580822615e-08,
				-0.7071067690849304,
				0.7071067690849304,
				8.429369557916289e-08
			],
			"translation":[
				3.8296508364510373e-07,
				0,
				4.38060998916626
			]
		},
		{
			"mesh":0,
			"name":"Cube",
			"skin":0
		},
		{
			"children":[
				10,
				9
			],
			"name":"Armature"
		}
	],
	"animations":[
		{
			"channels":[
				{
					"sampler":0,
					"target":{
						"node":9,
						"path":"translation"
					}
				},
				{
					"sampler":1,
					"target":{
						"node":9,
						"path":"rotation"
					}
				},
				{
					"sampler":2,
					"target":{
						"node":9,
						"path":"scale"
					}
				},
				{
					"sampler":3,
					"target":{
						"node":8,
						"path":"translation"
					}
				},
				{
					"sampler":4,
					"target":{
						"node":8,
						"path":"rotation"
					}
				},
				{
					"sampler":5,
					"target":{
						"node":8,
						"path":"scale"
					}
				},
				{
					"sampler":6,
					"target":{
						"node":7,
						"path":"translation"
					}
				},
				{
					"sampler":7,
					"target":{
						"node":7,
						"path":"rotation"
					}
				},
				{
					"sampler":8,
					"target":{
						"node":7,
						"path":"scale"
					}
				},
				{
					"sampler":9,
					"target":{
						"node":6,
						"path":"translation"
					}
				},
				{
					"sampler":10,
					"target":{
						"node":6,
						"path":"rotation"
					}
				},
				{
					"sampler":11,
					"target":{
						"node":6,
						"path":"scale"
					}
				},
				{
					"sampler":12,
					"target":{
						"node":0,
						"path":"translation"
					}
				},
				{
					"sampler":13,
					"target":{
						"node":0,
						"path":"rotation"
					}
				},
				{
					"sampler":14,
					"target":{
						"node":0,
						"path":"scale"
					}
				},
				{
					"sampler":15,
					"target":{
						"node":2,
						"path":"translation"
					}
				},
				{
					"sampler":16,
					"target":{
						"node":2,
						"path":"rotation"
					}
				},
				{
					"sampler":17,
					"target":{
						"node":2,
						"path":"scale"
					}
				},
				{
					"sampler":18,
					"target":{
						"node":1,
						"path":"translation"
					}
				},
				{
					"sampler":19,
					"target":{
						"node":1,
						"path":"rotation"
					}
				},
				{
					"sampler":20,
					"target":{
						"node":1,
						"path":"scale"
					}
				},
				{
					"sampler":21,
					"target":{
						"node":4,
						"path":"translation"
					}
				},
				{
					"sampler":22,
					"target":{
						"node":4,
						"path":"rotation"
					}
				},
				{
					"sampler":23,
					"target":{
						"node":4,
						"path":"scale"
					}
				},
				{
					"sampler":24,
					"target":{
						"node":3,
						"path":"translation"
					}
				},
				{
					"sampler":25,
					"target":{
						"node":3,
						"path":"rotation"
					}
				},
				{
					"sampler":26,
					"target":{
						"node":3,
						"path":"scale"
					}
				},
				{
					"sampler":27,
					"target":{
						"node":5,
						"path":"translation"
					}
				},
				{
					"sampler":28,
					"target":{
						"node":5,
						"path":"rotation"
					}
				},
				{
					"sampler":29,
					"target":{
						"node":5,
						"path":"scale"
					}
				}
			],
			"name":"ArmatureAction",
			"samplers":[
				{
					"input":7,
					"interpolation":"STEP",
					"output":8
				},
				{
					"input":9,
					"interpolation":"LINEAR",
					"output":10
				},
				{
					"input":7,
					"interpolation":"STEP",
					"output":11
				},
				{
					"input":7,
					"interpolation":"LINEAR",
					"output":12
				},
				{
					"input":7,
					"interpolation":"LINEAR",
					"output":13
				},
				{
					"input":7,
					"interpolation":"STEP",
					"output":14
				},
				{
					"input":7,
					"interpolation":"LINEAR",
					"output":15
				},
				{
					"input":9,
					"interpolation":"LINEAR",
					"output":16
				},
				{
					"input":7,
					"interpolation":"STEP",
					"output":17
				},
				{
					"input":7,
					"interpolation":"LINEAR",
					"output":18
				},
				{
					"input":9,
					"interpolation":"LINEAR",
					"output":19
				},
				{
					"input":7,
					"interpolation":"STEP",
					"output":20
				},
				{
					"input":7,
					"interpolation":"STEP",
					"output":21
				},
				{
					"input":7,
					"interpolation":"STEP",
					"output":22
				},
				{
					"input":7,
					"interpolation":"STEP",
					"output":23
				},
				{
					"input":7,
					"interpolation":"STEP",
					"output":24
				},
				{
					"input":7,
					"interpolation":"STEP",
					"output":25
				},
				{
					"input":7,
					"interpolation":"STEP",
					"output":26
				},
				{
					"input":7,
					"interpolation":"STEP",
					"output":27
				},
				{
					"input":7,
					"interpolation":"STEP",
					"output":28
				},
				{
					"input":7,
					"interpolation":"STEP",
					"output":29
				},
				{
					"input":7,
					"interpolation":"STEP",
					"output":30
				},
				{
					"input":7,
					"interpolation":"STEP",
					"output":31
				},
				{
					"input":7,
					"interpolation":"STEP",
					"output":32
				},
				{
					"input":7,
					"interpolation":"STEP",
					"output":33
				},
				{
					"input":7,
					"interpolation":"STEP",
					"output":34
				},
				{
					"input":7,
					"interpolation":"STEP",
					"output":35
				},
				{
					"input":7,
					"interpolation":"STEP",
					"output":36
				},
				{
					"input":7,
					"interpolation":"STEP",
					"output":37
				},
				{
					"input":7,
					"interpolation":"STEP",
					"output":38
				}
			]
		}
	],
	"materials":[
		{
			"doubleSided":true,
			"name":"Material.001",
			"pbrMetallicRoughness":{
				"baseColorTexture":{
					"index":0
				},
				"metallicFactor":0,
				"roughnessFactor":0.5
			}
		}
	],
	"meshes":[
		{
			"name":"Cube.001",
			"primitives":[
				{
					"attributes":{
						"POSITION":0,
						"NORMAL":1,
						"TEXCOORD_0":2,
						"JOINTS_0":3,
						"WEIGHTS_0":4
					},
					"indices":5,
					"material":0
				}
			]
		}
	],
	"textures":[
		{
			"sampler":0,
			"source":0
		}
	],
	"images":[
		{
			"mimeType":"image/png",
			"name":"Arm",
			"uri":"Arm.png"
		}
	],
	"skins":[
		{
			"inverseBindMatrices":6,
			"joints":[
				9,
				8,
				7,
				6,
				0,
				2,
				1,
				4,
				3,
				5
			],
			"name":"Armature"
		}
	],
	"accessors":[
		{
			"bufferView":0,
			"componentType":5126,
			"count":144,
			"max":[
				2.0274033546447754,
				1.0095044374465942,
				5.007655620574951
			],
			"min":[
				-2.053452730178833,
				-1.1445050239562988,
				-9.197837829589844
			],
			"type":"VEC3"
		},
		{
			"bufferView":1,
			"componentType":5126,
			"count":144,
			"type":"VEC3"
		},
		{
			"bufferView":2,
			"componentType":5126,
			"count":144,
			"type":"VEC2"
		},
		{
			"bufferView":3,
			"componentType":5121,
			"count":144,
			"type":"VEC4"
		},
		{
			"bufferView":4,
			"componentType":5126,
			"count":144,
			"type":"VEC4"
		},
		{
			"bufferView":5,
			"componentType":5123,
			"count":252,
			"type":"SCALAR"
		},
		{
			"bufferView":6,
			"componentType":5126,
			"count":10,
			"type":"MAT4"
		},
		{
			"bufferView":7,
			"componentType":5126,
			"count":2,
			"max":[
				1.25
			],
			"min":[
				0.041666666666666664
			],
			"type":"SCALAR"
		},
		{
			"bufferView":8,
			"componentType":5126,
			"count":2,
			"type":"VEC3"
		},
		{
			"bufferView":9,
			"componentType":5126,
			"count":30,
			"max":[
				1.25
			],
			"min":[
				0.041666666666666664
			],
			"type":"SCALAR"
		},
		{
			"bufferView":10,
			"componentType":5126,
			"count":30,
			"type":"VEC4"
		},
		{
			"bufferView":11,
			"componentType":5126,
			"count":2,
			"type":"VEC3"
		},
		{
			"bufferView":12,
			"componentType":5126,
			"count":2,
			"type":"VEC3"
		},
		{
			"bufferView":13,
			"componentType":5126,
			"count":2,
			"type":"VEC4"
		},
		{
			"bufferView":14,
			"componentType":5126,
			"count":2,
			"type":"VEC3"
		},
		{
			"bufferView":15,
			"componentType":5126,
			"count":2,
			"type":"VEC3"
		},
		{
			"bufferView":16,
			"componentType":5126,
			"count":30,
			"type":"VEC4"
		},
		{
			"bufferView":17,
			"componentType":5126,
			"count":2,
			"type":"VEC3"
		},
		{
			"bufferView":18,
			"componentType":5126,
			"count":2,
			"type":"VEC3"
		},
		{
			"bufferView":19,
			"componentType":5126,
			"count":30,
			"type":"VEC4"
		},
		{
			"bufferView":20,
			"componentType":5126,
			"count":2,
			"type":"VEC3"
		},
		{
			"bufferView":21,
			"componentType":5126,
			"count":2,
			"type":"VEC3"
		},
		{
			"bufferView":22,
			"componentType":5126,
			"count":2,
			"type":"VEC4"
		},
		{
			"bufferView":23,
			"componentType":5126,
			"count":2,
			"type":"VEC3"
		},
		{
			"bufferView":24,
			"componentType":5126,
			"count":2,
			"type":"VEC3"
		},
		{
			"bufferView":25,
			"componentType":5126,
			"count":2,
			"type":"VEC4"
		},
		{
			"bufferView":26,
			"componentType":5126,
			"count":2,
			"type":"VEC3"
		},
		{
			"bufferView":27,
			"componentType":5126,
			"count":2,
			"type":"VEC3"
		},
		{
			"bufferView":28,
			"componentType":5126,
			"count":2,
			"type":"VEC4"
		},
		{
			"bufferView":29,
			"componentType":5126,
			"count":2,
			"type":"VEC3"
		},
		{
			"bufferView":30,
			"componentType":5126,
			"count":2,
			"type":"VEC3"
		},
		{
			"bufferView":31,
			"componentType":5126,
			"count":2,
			"type":"VEC4"
		},
		{
			"bufferView":32,
			"componentType":5126,
			"count":2,
			"type":"VEC3"
		},
		{
			"bufferView":33,
			"componentType":5126,
			"count":2,
			"type":"VEC3"
		},
		{
			"bufferView":34,
			"componentType":5126,
			"count":2,
			"type":"VEC4"
		},
		{
			"bufferView":35,
			"componentType":5126,
			"count":2,
			"type":"VEC3"
		},
		{
			"bufferView":36,
			"componentType":5126,
			"count":2,
			"type":"VEC3"
		},
		{
			"bufferView":37,
			"componentType":5126,
			"count":2,
			"type":"VEC4"
		},
		{
			"bufferView":38,
			"componentType":5126,
			"count":2,
			"type":"VEC3"
		}
	],
	"bufferViews":[
		{
			"buffer":0,
			"byteLength":1728,
			"byteOffset":0,
			"target":34962
		},
		{
			"buffer":0,
			"byteLength":1728,
			"byteOffset":1728,
			"target":34962
		},
		{
			"buffer":0,
			"byteLength":1152,
			"byteOffset":3456,
			"target":34962
		},
		{
			"buffer":0,
			"byteLength":576,
			"byteOffset":4608,
			"target":34962
		},
		{
			"buffer":0,
			"byteLength":2304,
			"byteOffset":5184,
			"target":34962
		},
		{
			"buffer":0,
			"byteLength":504,
			"byteOffset":7488,
			"target":34963
		},
		{
			"buffer":0,
			"byteLength":640,
			"byteOffset":7992
		},
		{
			"buffer":0,
			"byteLength":8,
			"byteOffset":8632
		},
		{
			"buffer":0,
			"byteLength":24,
			"byteOffset":8640
		},
		{
			"buffer":0,
			"byteLength":120,
			"byteOffset":8664
		},
		{
			"buffer":0,
			"byteLength":480,
			"byteOffset":8784
		},
		{
			"buffer":0,
			"byteLength":24,
			"byteOffset":9264
		},
		{
			"buffer":0,
			"byteLength":24,
			"byteOffset":9288
		},
		{
			"buffer":0,
			"byteLength":32,
			"byteOffset":9312
		},
		{
			"buffer":0,
			"byteLength":24,
			"byteOffset":9344
		},
		{
			"buffer":0,
			"byteLength":24,
			"byteOffset":9368
		},
		{
			"buffer":0,
			"byteLength":480,
			"byteOffset":9392
		},
		{
			"buffer":0,
			"byteLength":24,
			"byteOffset":9872
		},
		{
			"buffer":0,
			"byteLength":24,
			"byteOffset":9896
		},
		{
			"buffer":0,
			"byteLength":480,
			"byteOffset":9920
		},
		{
			"buffer":0,
			"byteLength":24,
			"byteOffset":10400
		},
		{
			"buffer":0,
			"byteLength":24,
			"byteOffset":10424
		},
		{
			"buffer":0,
			"byteLength":32,
			"byteOffset":10448
		},
		{
			"buffer":0,
			"byteLength":24,
			"byteOffset":10480
		},
		{
			"buffer":0,
			"byteLength":24,
			"byteOffset":10504
		},
		{
			"buffer":0,
			"byteLength":32,
			"byteOffset":10528
		},
		{
			"buffer":0,
			"byteLength":24,
			"byteOffset":10560
		},
		{
			"buffer":0,
			"byteLength":24,
			"byteOffset":10584
		},
		{
			"buffer":0,
			"byteLength":32,
			"byteOffset":10608
		},
		{
			"buffer":0,
			"byteLength":24,
			"byteOffset":10640
		},
		{
			"buffer":0,
			"byteLength":24,
			"byteOffset":10664
		},
		{
			"buffer":0,
			"byteLength":32,
			"byteOffset":10688
		},
		{
			"buffer":0,
			"byteLength":24,
			"byteOffset":10720
		},
		{
			"buffer":0,
			"byteLength":24,
			"byteOffset":10744
		},
		{
			"buffer":0,
			"byteLength":32,
			"byteOffset":10768
		},
		{
			"buffer":0,
			"byteLength":24,
			"byteOffset":10800
		},
		{
			"buffer":0,
			"byteLength":24,
			"byteOffset":10824
		},
		{
			"buffer":0,
			"byteLength":32,
			"byteOffset":10848
		},
		{
			"buffer":0,
			"byteLength":24,
			"byteOffset":10880
		}
	],
	"samplers":[
		{
			"magFilter":9729,
			"minFilter":9987
		}
	],
	"buffers":[
		{
			"byteLength":10904,
			"uri":"Arm.bin"
		}
	]
}
