# Blender v3.5.0 OBJ File: ''
# www.blender.org
mtllib Rock.mtl
o Cube
v -1.000000 2.134221 1.000000
v -3.883978 -1.000000 5.396942
v -1.000000 1.821684 -1.000000
v -3.883978 -1.000000 -5.396942
v 1.000000 2.166845 1.000000
v 3.883978 -1.000000 5.396942
v 1.000000 2.059886 -1.000000
v 3.883978 -1.000000 -5.396942
v -2.681233 0.567111 3.391756
v 2.681233 0.877142 -3.391756
v -2.681233 0.410842 -3.391756
v 2.681233 1.081212 3.391756
v 3.883978 -1.000000 0.000000
v -1.000000 1.977952 0.000000
v 1.000000 2.263956 0.000000
v -3.883978 -1.000000 0.000000
v -2.681233 0.488976 0.000000
v 2.681233 0.979177 0.000000
v 0.000000 -1.000000 5.396942
v 0.000000 2.287984 -1.000000
v 0.000000 -1.000000 -5.396942
v 0.000000 2.141863 1.000000
v 0.000000 0.824161 3.391756
v 0.000000 0.643992 -3.391756
v 0.000000 -1.000000 0.000000
v 0.000000 2.468153 0.000000
vt 0.875000 0.625000
vt 0.750000 0.750000
vt 0.750000 0.625000
vt 0.500000 0.875000
vt 0.625000 1.000000
vt 0.500000 1.000000
vt 0.500000 0.125000
vt 0.625000 0.250000
vt 0.500000 0.250000
vt 0.375000 0.625000
vt 0.250000 0.750000
vt 0.250000 0.625000
vt 0.500000 0.625000
vt 0.625000 0.750000
vt 0.500000 0.750000
vt 0.500000 0.375000
vt 0.625000 0.500000
vt 0.500000 0.500000
vt 0.375000 0.375000
vt 0.375000 0.500000
vt 0.375000 0.750000
vt 0.375000 0.125000
vt 0.375000 0.250000
vt 0.375000 0.875000
vt 0.375000 1.000000
vt 0.500000 0.000000
vt 0.375000 0.000000
vt 0.250000 0.500000
vt 0.625000 0.000000
vt 0.750000 0.500000
vt 0.625000 0.625000
vt 0.125000 0.625000
vt 0.125000 0.500000
vt 0.125000 0.750000
vt 0.875000 0.750000
vt 0.625000 0.875000
vt 0.625000 0.125000
vt 0.625000 0.375000
vt 0.875000 0.500000
vn 0.1970 0.9649 -0.1738
vn -0.0758 0.8716 -0.4843
vn 0.5669 0.8234 -0.0248
vn 0.0000 -1.0000 0.0000
vn -0.6276 0.7783 -0.0179
vn -0.0824 0.8592 0.5050
vn 0.0000 0.7879 0.6158
vn -0.7610 0.6488 0.0000
vn 0.8658 0.5004 0.0000
vn 0.0000 0.7300 -0.6834
vn 0.8420 0.5395 0.0000
vn -0.7933 0.6088 0.0000
vn -0.6943 0.7195 -0.0166
vn 0.5511 0.8341 -0.0251
vn 0.1906 0.9333 0.3045
vn -0.0075 0.9880 -0.1544
vn 0.0000 0.8178 -0.5754
vn 0.0000 0.6938 0.7201
vn -0.0847 0.8836 0.4606
vn -0.0766 0.8814 -0.4661
vn -0.4184 0.8974 -0.1402
vn 0.2181 0.9562 -0.1951
vn 0.1847 0.8099 -0.5567
vn 0.6054 0.7922 0.0769
vn -0.6585 0.7435 -0.1162
vn -0.0067 0.8759 0.4825
vn -0.0707 0.7379 0.6712
vn -0.7778 0.6283 -0.0145
vn 0.8545 0.5193 -0.0156
vn -0.0671 0.7716 -0.6326
vn 0.5994 0.7843 -0.1601
vn -0.0249 0.9950 0.0966
vn -0.4224 0.8617 0.2812
vn -0.0219 0.8757 0.4824
vn -0.3587 0.7693 -0.5288
vn -0.4345 0.8864 -0.1597
usemtl Material
s off
f 15/1/1 20/2/1 26/3/1
f 24/4/2 7/5/2 10/6/2
f 18/7/3 5/8/3 12/9/3
f 16/10/4 21/11/4 25/12/4
f 17/13/5 3/14/5 11/15/5
f 23/16/6 1/17/6 9/18/6
f 19/19/7 9/18/7 2/20/7
f 16/10/8 11/15/8 4/21/8
f 13/22/9 12/9/9 6/23/9
f 21/24/10 10/6/10 8/25/10
f 10/26/11 13/22/11 8/27/11
f 9/18/12 16/10/12 2/20/12
f 1/17/13 17/13/13 9/18/13
f 2/20/4 25/12/4 19/28/4
f 7/29/14 18/7/14 10/26/14
f 22/30/15 15/1/15 26/3/15
f 22/30/16 14/31/16 1/17/16
f 19/28/4 13/32/4 6/33/4
f 11/15/17 21/24/17 4/21/17
f 12/9/18 19/19/18 6/23/18
f 5/8/19 23/16/19 12/9/19
f 25/12/4 8/34/4 13/32/4
f 3/14/20 24/4/20 11/15/20
f 14/31/21 20/2/21 3/14/21
f 15/1/22 7/35/22 20/2/22
f 24/4/23 20/36/23 7/5/23
f 18/7/24 15/37/24 5/8/24
f 16/10/4 4/21/4 21/11/4
f 17/13/25 14/31/25 3/14/25
f 23/16/26 22/38/26 1/17/26
f 19/19/27 23/16/27 9/18/27
f 16/10/28 17/13/28 11/15/28
f 13/22/29 18/7/29 12/9/29
f 21/24/30 24/4/30 10/6/30
f 10/26/29 18/7/29 13/22/29
f 9/18/28 17/13/28 16/10/28
f 1/17/25 14/31/25 17/13/25
f 2/20/4 16/10/4 25/12/4
f 7/29/31 15/37/31 18/7/31
f 22/30/32 5/39/32 15/1/32
f 22/30/33 26/3/33 14/31/33
f 19/28/4 25/12/4 13/32/4
f 11/15/30 24/4/30 21/24/30
f 12/9/27 23/16/27 19/19/27
f 5/8/34 22/38/34 23/16/34
f 25/12/4 21/11/4 8/34/4
f 3/14/35 20/36/35 24/4/35
f 14/31/36 26/3/36 20/2/36
