# Blender 4.1.1
# www.blender.org
mtllib ground.mtl
o Cube
v -25.000000 5.154246 25.000000
v -25.000000 -0.907549 25.000000
v -25.000000 5.154242 -25.000000
v -25.000000 -0.907553 -25.000000
v 25.000000 5.154246 25.000000
v 25.000000 -0.907549 25.000000
v 25.000000 5.154242 -25.000000
v 25.000000 -0.907553 -25.000000
vn -0.0000 1.0000 -0.0000
vn -0.0000 -0.0000 -1.0000
vn 1.0000 -0.0000 -0.0000
vn -0.0000 -1.0000 -0.0000
vn -1.0000 -0.0000 -0.0000
vn -0.0000 -0.0000 1.0000
vt 0.333333 0.666667
vt 0.000000 1.000000
vt 0.000000 0.666667
vt 0.333333 0.333333
vt 0.000000 0.000000
vt 0.333333 0.000000
vt 0.000000 0.333333
vt 0.965163 0.675614
vt 0.916905 0.723872
vt 0.916905 0.675614
vt 0.666667 0.333333
vt 0.666667 0.000000
vt 0.666667 0.666667
vt 0.333333 1.000000
vt 0.965163 0.723872
s 0
usemtl Material.002
f 5/1/1 3/2/1 1/3/1
f 3/4/2 8/5/2 4/6/2
f 7/1/3 6/7/3 8/4/3
f 2/8/4 8/9/4 6/10/4
f 1/11/5 4/6/5 2/12/5
f 5/13/6 2/4/6 6/11/6
f 5/1/1 7/14/1 3/2/1
f 3/4/2 7/7/2 8/5/2
f 7/1/3 5/3/3 6/7/3
f 2/8/4 4/15/4 8/9/4
f 1/11/5 3/4/5 4/6/5
f 5/13/6 1/1/6 2/4/6
o 平面.001
v -25.000000 0.000000 0.000000
v 25.000000 0.000000 0.000000
v -25.000000 0.000000 0.000000
v 25.000000 0.000000 0.000000
vn -0.0000 -0.0000 1.0000
vt 1.000000 0.000000
vt 0.000000 1.000000
vt 0.000000 0.000000
vt 1.000000 1.000000
s 0
usemtl マテリアル
f 10/16/7 11/17/7 9/18/7
f 10/16/7 12/19/7 11/17/7
