# Blender 4.1.1
# www.blender.org
mtllib Tutorial.mtl
o Cylinder
v -0.039004 -0.079116 0.150841
v 0.252437 1.021165 0.171192
v -0.094918 -0.064092 0.139327
v 0.196523 1.036188 0.159678
v -0.142214 -0.050958 0.106536
v 0.149227 1.049322 0.126887
v -0.173692 -0.041712 0.057462
v 0.117749 1.058568 0.077813
v -0.184559 -0.037763 -0.000426
v 0.106881 1.062517 0.019925
v -0.173162 -0.039711 -0.058313
v 0.118279 1.060569 -0.037962
v -0.141235 -0.047260 -0.107388
v 0.150206 1.053020 -0.087037
v -0.093638 -0.059261 -0.140178
v 0.197802 1.041019 -0.119827
v -0.037619 -0.073887 -0.151693
v 0.253822 1.026394 -0.131342
v 0.018295 -0.088910 -0.140178
v 0.309736 1.011370 -0.119827
v 0.065591 -0.102044 -0.107388
v 0.357032 0.998236 -0.087037
v 0.097069 -0.111290 -0.058313
v 0.388510 0.988990 -0.037962
v 0.107936 -0.115239 -0.000426
v 0.399377 0.985041 0.019925
v 0.096539 -0.113291 0.057462
v 0.387980 0.986989 0.077813
v 0.064612 -0.105742 0.106536
v 0.356052 0.994539 0.126887
v 0.017015 -0.093741 0.139327
v 0.308456 1.006539 0.159678
v 0.759753 0.539087 -0.159421
v -0.427000 0.853432 -0.159421
v 0.947483 1.247829 -0.146312
v -0.239269 1.562174 -0.146312
vn -0.1931 0.0330 0.9806
vn -0.5409 0.1279 0.8313
vn -0.8063 0.2033 0.5555
vn -0.9490 0.2478 0.1951
vn -0.9472 0.2545 -0.1951
vn -0.8012 0.2225 -0.5555
vn -0.5332 0.1566 -0.8313
vn -0.1841 0.0669 -0.9806
vn 0.1931 -0.0330 -0.9806
vn 0.5409 -0.1279 -0.8313
vn 0.8063 -0.2033 -0.5555
vn 0.9490 -0.2478 -0.1951
vn 0.9472 -0.2545 0.1951
vn 0.8012 -0.2225 0.5555
vn 0.2560 0.9665 0.0179
vn 0.5332 -0.1566 0.8313
vn 0.1841 -0.0669 0.9806
vn -0.2560 -0.9665 -0.0179
vn 0.0046 0.0173 -0.9998
vt 0.844651 0.447866
vt 0.821722 0.264435
vt 0.844651 0.264435
vt 0.821722 0.447866
vt 0.798793 0.264435
vt 0.798793 0.447866
vt 0.775864 0.264435
vt 0.775864 0.447866
vt 0.752936 0.264435
vt 0.752936 0.447866
vt 0.730007 0.264435
vt 0.730007 0.447866
vt 0.707078 0.264435
vt 0.707078 0.447866
vt 0.684149 0.264435
vt 0.684149 0.447866
vt 0.661220 0.264435
vt 0.661220 0.447866
vt 0.638292 0.264435
vt 0.638292 0.447866
vt 0.615363 0.264435
vt 0.615363 0.447866
vt 0.592434 0.264435
vt 0.592434 0.447866
vt 0.569505 0.264435
vt 0.569505 0.447866
vt 0.546577 0.264435
vt 0.546577 0.447866
vt 0.523648 0.264435
vt 0.507247 0.110462
vt 0.631764 0.110462
vt 0.631764 0.234979
vt 0.523648 0.447866
vt 0.500719 0.264435
vt 0.500719 0.447866
vt 0.477790 0.264435
vt 0.834280 0.206414
vt 0.786629 0.091376
vt 0.671591 0.139026
vt 0.525942 0.622493
vt 0.067522 0.954180
vt 0.067522 0.622493
vt 0.603199 0.254065
vt 0.507247 0.234979
vt 0.569505 0.260767
vt 0.535811 0.254065
vt 0.488161 0.206414
vt 0.481459 0.172720
vt 0.488161 0.139026
vt 0.535811 0.091376
vt 0.569505 0.084674
vt 0.603199 0.091376
vt 0.650850 0.139026
vt 0.657552 0.172720
vt 0.650850 0.206414
vt 0.477790 0.447866
vt 0.719242 0.254065
vt 0.752936 0.260767
vt 0.786629 0.254065
vt 0.815194 0.234979
vt 0.840982 0.172720
vt 0.834280 0.139026
vt 0.815194 0.110462
vt 0.752936 0.084674
vt 0.719242 0.091376
vt 0.690677 0.110462
vt 0.664889 0.172720
vt 0.671591 0.206414
vt 0.690677 0.234979
vt 0.525942 0.954180
s 0
usemtl Material.001
f 2/1/1 3/2/1 1/3/1
f 4/4/2 5/5/2 3/2/2
f 6/6/3 7/7/3 5/5/3
f 8/8/4 9/9/4 7/7/4
f 10/10/5 11/11/5 9/9/5
f 12/12/6 13/13/6 11/11/6
f 14/14/7 15/15/7 13/13/7
f 16/16/8 17/17/8 15/15/8
f 18/18/9 19/19/9 17/17/9
f 20/20/10 21/21/10 19/19/10
f 22/22/11 23/23/11 21/21/11
f 24/24/12 25/25/12 23/23/12
f 26/26/13 27/27/13 25/25/13
f 28/28/14 29/29/14 27/27/14
f 22/30/15 14/31/15 6/32/15
f 30/33/16 31/34/16 29/29/16
f 32/35/17 1/36/17 31/34/17
f 7/37/18 15/38/18 23/39/18
f 34/40/19 35/41/19 33/42/19
f 2/1/1 4/4/1 3/2/1
f 4/4/2 6/6/2 5/5/2
f 6/6/3 8/8/3 7/7/3
f 8/8/4 10/10/4 9/9/4
f 10/10/5 12/12/5 11/11/5
f 12/12/6 14/14/6 13/13/6
f 14/14/7 16/16/7 15/15/7
f 16/16/8 18/18/8 17/17/8
f 18/18/9 20/20/9 19/19/9
f 20/20/10 22/22/10 21/21/10
f 22/22/11 24/24/11 23/23/11
f 24/24/12 26/26/12 25/25/12
f 26/26/13 28/28/13 27/27/13
f 28/28/14 30/33/14 29/29/14
f 6/32/15 4/43/15 30/44/15
f 4/43/15 2/45/15 30/44/15
f 2/45/15 32/46/15 30/44/15
f 30/44/15 28/47/15 22/30/15
f 28/47/15 26/48/15 22/30/15
f 26/48/15 24/49/15 22/30/15
f 22/30/15 20/50/15 14/31/15
f 20/50/15 18/51/15 14/31/15
f 18/51/15 16/52/15 14/31/15
f 14/31/15 12/53/15 10/54/15
f 10/54/15 8/55/15 6/32/15
f 14/31/15 10/54/15 6/32/15
f 6/32/15 30/44/15 22/30/15
f 30/33/16 32/35/16 31/34/16
f 32/35/17 2/56/17 1/36/17
f 31/57/18 1/58/18 3/59/18
f 3/59/18 5/60/18 31/57/18
f 5/60/18 7/37/18 31/57/18
f 7/37/18 9/61/18 15/38/18
f 9/61/18 11/62/18 15/38/18
f 11/62/18 13/63/18 15/38/18
f 15/38/18 17/64/18 19/65/18
f 19/65/18 21/66/18 15/38/18
f 21/66/18 23/39/18 15/38/18
f 23/39/18 25/67/18 27/68/18
f 27/68/18 29/69/18 31/57/18
f 23/39/18 27/68/18 31/57/18
f 31/57/18 7/37/18 23/39/18
f 34/40/19 36/70/19 35/41/19
